{"accessors" : [{"bufferView" : 0, "byteOffset" : 0, "componentType" : 5123, "count" : 41280, "type" : "SCALAR", "max" : [7102], "min" : [0]}, {"bufferView" : 1, "byteOffset" : 0, "componentType" : 5126, "count" : 7103, "type" : "VEC3", "max" : [1.872534990310669, 46.96540069580078, 1.8725169897079468], "min" : [-1.8727270364761353, 39.366302490234375, -1.8725160360336304], "name" : "POSITION"}, {"bufferView" : 1, "byteOffset" : 12, "componentType" : 5126, "count" : 7103, "type" : "VEC2", "max" : [0.9745280146598816, -0.02547300048172474], "min" : [0.019456999376416206, -0.9826809763908386], "name" : "TEXCOORD_0"}, {"bufferView" : 1, "byteOffset" : 20, "componentType" : 5126, "count" : 7103, "type" : "VEC3", "max" : [1.0000044107437134, 1.0000044107437134, 1.0000044107437134], "min" : [-1.0000044107437134, -1.0000044107437134, -1.0000044107437134], "name" : "NORMAL"}, {"bufferView" : 0, "byteOffset" : 82560, "componentType" : 5123, "count" : 15456, "type" : "SCALAR", "max" : [10303], "min" : [0]}, {"bufferView" : 2, "byteOffset" : 0, "componentType" : 5126, "count" : 10304, "type" : "VEC3", "max" : [2.3613181114196777, 55.47523498535156, 2.3836510181427], "min" : [-2.405724048614502, 50.4506950378418, -2.3836519718170166], "name" : "POSITION"}, {"bufferView" : 2, "byteOffset" : 12, "componentType" : 5126, "count" : 10304, "type" : "VEC2", "max" : [0.9786679744720459, -0.09706900268793106], "min" : [0.01107999961823225, -0.9406139850616455], "name" : "TEXCOORD_0"}, {"bufferView" : 2, "byteOffset" : 20, "componentType" : 5126, "count" : 10304, "type" : "VEC3", "max" : [0.9989855885505676, 0.9956843256950378, 0.9989565014839172], "min" : [-0.9989862442016602, -1.0000044107437134, -0.9989564418792725], "name" : "NORMAL"}, {"bufferView" : 0, "byteOffset" : 113472, "componentType" : 5123, "count" : 65472, "type" : "SCALAR", "max" : [43647], "min" : [0]}, {"bufferView" : 3, "byteOffset" : 0, "componentType" : 5126, "count" : 43648, "type" : "VEC3", "max" : [2.3686039447784424, 50.587703704833984, 2.3685379028320312], "min" : [-2.3686959743499756, 46.969295501708984, -2.3685379028320312], "name" : "POSITION"}, {"bufferView" : 3, "byteOffset" : 12, "componentType" : 5126, "count" : 43648, "type" : "VEC2", "max" : [0.9901959896087646, -0.008927999995648861], "min" : [0.00980400014668703, -0.9017199873924255], "name" : "TEXCOORD_0"}, {"bufferView" : 3, "byteOffset" : 20, "componentType" : 5126, "count" : 43648, "type" : "VEC3", "max" : [0.9990344643592834, 1.0000044107437134, 0.999064028263092], "min" : [-0.9990343451499939, -1.0000044107437134, -0.9990644454956055], "name" : "NORMAL"}, {"bufferView" : 0, "byteOffset" : 244416, "componentType" : 5123, "count" : 181056, "type" : "SCALAR", "max" : [31669], "min" : [0]}, {"bufferView" : 4, "byteOffset" : 0, "componentType" : 5126, "count" : 31670, "type" : "VEC3", "max" : [8.299299240112305, 60.35891342163086, 9.653447151184082], "min" : [-11.188652992248535, 0, -9.653446197509766], "name" : "POSITION"}, {"bufferView" : 4, "byteOffset" : 12, "componentType" : 5126, "count" : 31670, "type" : "VEC2", "max" : [0.9924719929695129, -0.006233000196516514], "min" : [0.0019779999274760485, -0.9801009893417358], "name" : "TEXCOORD_0"}, {"bufferView" : 4, "byteOffset" : 20, "componentType" : 5126, "count" : 31670, "type" : "VEC3", "max" : [1.0000044107437134, 1.0000044107437134, 1.0000044107437134], "min" : [-1.0000044107437134, -1.0000044107437134, -1.0000044107437134], "name" : "NORMAL"}, {"bufferView" : 0, "byteOffset" : 606528, "componentType" : 5123, "count" : 61824, "type" : "SCALAR", "max" : [10903], "min" : [0]}, {"bufferView" : 5, "byteOffset" : 0, "componentType" : 5126, "count" : 10904, "type" : "VEC3", "max" : [14.68017292022705, 62.81731414794922, 14.679283142089844], "min" : [-14.68017292022705, 41.65619659423828, -14.679283142089844], "name" : "POSITION"}, {"bufferView" : 5, "byteOffset" : 12, "componentType" : 5126, "count" : 10904, "type" : "VEC2", "max" : [0.9832159876823425, -0.031640999019145966], "min" : [0.025438999757170677, -0.9244430065155029], "name" : "TEXCOORD_0"}, {"bufferView" : 5, "byteOffset" : 20, "componentType" : 5126, "count" : 10904, "type" : "VEC3", "max" : [0.9999246597290039, 1.0000044107437134, 0.9999228119850159], "min" : [-0.9999246597290039, -1.0000044107437134, -0.9999228715896606], "name" : "NORMAL"}], "asset" : {"generator" : "Aspose.3D 21.3.1", "version" : "2.0"}, "buffers" : [{"uri" : "buffer.bin", "byteLength" : 12413016}], "bufferViews" : [{"buffer" : 0, "byteOffset" : 0, "byteLength" : 730176, "target" : 34963}, {"buffer" : 0, "byteOffset" : 730180, "byteLength" : 1320960, "byteStride" : 32, "target" : 34962}, {"buffer" : 0, "byteOffset" : 2051144, "byteLength" : 494592, "byteStride" : 32, "target" : 34962}, {"buffer" : 0, "byteOffset" : 2545740, "byteLength" : 2095104, "byteStride" : 32, "target" : 34962}, {"buffer" : 0, "byteOffset" : 4640848, "byteLength" : 5793792, "byteStride" : 32, "target" : 34962}, {"buffer" : 0, "byteOffset" : 10434644, "byteLength" : 1978368, "byteStride" : 32, "target" : 34962}], "meshes" : [{"primitives" : [{"attributes" : {"POSITION" : 1, "TEXCOORD_0" : 2, "NORMAL" : 3}, "indices" : 0, "mode" : 4}]}, {"primitives" : [{"attributes" : {"POSITION" : 5, "TEXCOORD_0" : 6, "NORMAL" : 7}, "indices" : 4, "mode" : 4}]}, {"primitives" : [{"attributes" : {"POSITION" : 9, "TEXCOORD_0" : 10, "NORMAL" : 11}, "indices" : 8, "mode" : 4}]}, {"primitives" : [{"attributes" : {"POSITION" : 13, "TEXCOORD_0" : 14, "NORMAL" : 15}, "indices" : 12, "mode" : 4}]}, {"primitives" : [{"attributes" : {"POSITION" : 17, "TEXCOORD_0" : 18, "NORMAL" : 19}, "indices" : 16, "mode" : 4}]}], "nodes" : [{"mesh" : 0, "name" : "a_bedside_lamp_167_grind_arenaceous_metal"}, {"mesh" : 1, "name" : "a_bedside_lamp_167_glass"}, {"mesh" : 2, "name" : "a_bedside_lamp_167_plastic"}, {"mesh" : 3, "name" : "a_bedside_lamp_167_metal"}, {"mesh" : 4, "name" : "a_bedside_lamp_167_fabric"}], "scene" : 0, "scenes" : [{"nodes" : [0, 1, 2, 3, 4]}]}