{"accessors" : [{"bufferView" : 0, "byteOffset" : 0, "componentType" : 5125, "count" : 499320, "type" : "SCALAR", "max" : [332879], "min" : [0]}, {"bufferView" : 1, "byteOffset" : 0, "componentType" : 5126, "count" : 332880, "type" : "VEC3", "max" : [43.13277053833008, 83.0418930053711, 25.44012451171875], "min" : [-43.13277053833008, 2.884143114089966, -25.44012451171875], "name" : "POSITION"}, {"bufferView" : 1, "byteOffset" : 12, "componentType" : 5126, "count" : 332880, "type" : "VEC2", "max" : [0.9909719824790955, -0.02113400027155876], "min" : [0.01873200014233589, -0.9819909930229187], "name" : "TEXCOORD_0"}, {"bufferView" : 1, "byteOffset" : 20, "componentType" : 5126, "count" : 332880, "type" : "VEC3", "max" : [1.0000044107437134, 1.0000044107437134, 1.0000044107437134], "min" : [-1.0000044107437134, -1.0000044107437134, -1.0000044107437134], "name" : "NORMAL"}, {"bufferView" : 0, "byteOffset" : 1997280, "componentType" : 5123, "count" : 46368, "type" : "SCALAR", "max" : [30911], "min" : [0]}, {"bufferView" : 2, "byteOffset" : 0, "componentType" : 5126, "count" : 30912, "type" : "VEC3", "max" : [37.574588775634766, 79.59302520751953, 20.46846580505371], "min" : [-37.574588775634766, 0, -20.46846580505371], "name" : "POSITION"}, {"bufferView" : 2, "byteOffset" : 12, "componentType" : 5126, "count" : 30912, "type" : "VEC2", "max" : [0.9933680295944214, -0.011079000309109688], "min" : [0.01899299956858158, -0.983260989189148], "name" : "TEXCOORD_0"}, {"bufferView" : 2, "byteOffset" : 20, "componentType" : 5126, "count" : 30912, "type" : "VEC3", "max" : [1.0000044107437134, 1.0000044107437134, 1.0000044107437134], "min" : [-1.0000044107437134, -1.0000044107437134, -1.0000044107437134], "name" : "NORMAL"}], "asset" : {"generator" : "Aspose.3D 21.3.1", "version" : "2.0"}, "buffers" : [{"uri" : "buffer.bin", "byteLength" : 19552044}], "bufferViews" : [{"buffer" : 0, "byteOffset" : 0, "byteLength" : 2090016, "target" : 34963}, {"buffer" : 0, "byteOffset" : 2090020, "byteLength" : 15978240, "byteStride" : 32, "target" : 34962}, {"buffer" : 0, "byteOffset" : 18068264, "byteLength" : 1483776, "byteStride" : 32, "target" : 34962}], "meshes" : [{"primitives" : [{"attributes" : {"POSITION" : 1, "TEXCOORD_0" : 2, "NORMAL" : 3}, "indices" : 0, "mode" : 4}]}, {"primitives" : [{"attributes" : {"POSITION" : 5, "TEXCOORD_0" : 6, "NORMAL" : 7}, "indices" : 4, "mode" : 4}]}], "nodes" : [{"mesh" : 0, "name" : "antique_tall_bedroom_table_1320_table"}, {"mesh" : 1, "name" : "antique_tall_bedroom_table_1320_metal"}], "scene" : 0, "scenes" : [{"nodes" : [0, 1]}]}