{
  "accessors": [
    {
      "bufferView": 2,
      "componentType": 5126,
      "count": 594,
      "max": [
        0.6101803183555603,
        0.57161569595336914,
        2.0232434272766113
      ],
      "min": [
        -0.61018025875091553,
        -0.59045881032943726,
        -0.0031888484954833984
      ],
      "type": "VEC3"
    },
    {
      "bufferView": 2,
      "byteOffset": 7128,
      "componentType": 5126,
      "count": 594,
      "max": [
        1,
        1,
        1
      ],
      "min": [
        -1,
        -1,
        -1
      ],
      "type": "VEC3"
    },
    {
      "bufferView": 3,
      "componentType": 5126,
      "count": 594,
      "max": [
        1,
        1,
        1,
        1
      ],
      "min": [
        -1,
        -1,
        -1,
        -1
      ],
      "type": "VEC4"
    },
    {
      "bufferView": 1,
      "componentType": 5126,
      "count": 594,
      "max": [
        0.96276843547821045,
        0.96393477916717529
      ],
      "min": [
        0.016533929854631424,
        0.01552996039390564
      ],
      "type": "VEC2"
    },
    {
      "bufferView": 1,
      "byteOffset": 4752,
      "componentType": 5126,
      "count": 594,
      "max": [
        0.96276843547821045,
        0.96393477916717529
      ],
      "min": [
        0.016533929854631424,
        0.01552996039390564
      ],
      "type": "VEC2"
    },
    {
      "bufferView": 1,
      "byteOffset": 9504,
      "componentType": 5126,
      "count": 594,
      "max": [
        0.96276843547821045,
        0.96393477916717529
      ],
      "min": [
        0.016533929854631424,
        0.01552996039390564
      ],
      "type": "VEC2"
    },
    {
      "bufferView": 0,
      "componentType": 5125,
      "count": 2238,
      "max": [
        593
      ],
      "min": [
        0
      ],
      "type": "SCALAR"
    },
    {
      "bufferView": 2,
      "byteOffset": 14256,
      "componentType": 5126,
      "count": 594,
      "max": [
        0.6101803183555603,
        0.57161569595336914,
        2.0232434272766113
      ],
      "min": [
        -0.61018025875091553,
        -0.59045881032943726,
        -0.0031888484954833984
      ],
      "type": "VEC3"
    },
    {
      "bufferView": 2,
      "byteOffset": 21384,
      "componentType": 5126,
      "count": 594,
      "max": [
        1,
        1,
        1
      ],
      "min": [
        -1,
        -1,
        -1
      ],
      "type": "VEC3"
    },
    {
      "bufferView": 3,
      "byteOffset": 9504,
      "componentType": 5126,
      "count": 594,
      "max": [
        1,
        1,
        1,
        1
      ],
      "min": [
        -1,
        -1,
        -1,
        -1
      ],
      "type": "VEC4"
    },
    {
      "bufferView": 1,
      "byteOffset": 14256,
      "componentType": 5126,
      "count": 594,
      "max": [
        0.96276843547821045,
        0.96393477916717529
      ],
      "min": [
        0.016533929854631424,
        0.01552996039390564
      ],
      "type": "VEC2"
    },
    {
      "bufferView": 1,
      "byteOffset": 19008,
      "componentType": 5126,
      "count": 594,
      "max": [
        0.96276843547821045,
        0.96393477916717529
      ],
      "min": [
        0.016533929854631424,
        0.01552996039390564
      ],
      "type": "VEC2"
    },
    {
      "bufferView": 1,
      "byteOffset": 23760,
      "componentType": 5126,
      "count": 594,
      "max": [
        0.96276843547821045,
        0.96393477916717529
      ],
      "min": [
        0.016533929854631424,
        0.01552996039390564
      ],
      "type": "VEC2"
    },
    {
      "bufferView": 0,
      "byteOffset": 8952,
      "componentType": 5125,
      "count": 2238,
      "max": [
        593
      ],
      "min": [
        0
      ],
      "type": "SCALAR"
    },
    {
      "bufferView": 2,
      "byteOffset": 28512,
      "componentType": 5126,
      "count": 594,
      "max": [
        0.6101803183555603,
        0.57161569595336914,
        2.0232434272766113
      ],
      "min": [
        -0.61018025875091553,
        -0.59045881032943726,
        -0.0031888484954833984
      ],
      "type": "VEC3"
    },
    {
      "bufferView": 2,
      "byteOffset": 35640,
      "componentType": 5126,
      "count": 594,
      "max": [
        1,
        1,
        1
      ],
      "min": [
        -1,
        -1,
        -1
      ],
      "type": "VEC3"
    },
    {
      "bufferView": 3,
      "byteOffset": 19008,
      "componentType": 5126,
      "count": 594,
      "max": [
        1,
        1,
        1,
        1
      ],
      "min": [
        -1,
        -1,
        -1,
        -1
      ],
      "type": "VEC4"
    },
    {
      "bufferView": 1,
      "byteOffset": 28512,
      "componentType": 5126,
      "count": 594,
      "max": [
        0.96276843547821045,
        0.96393477916717529
      ],
      "min": [
        0.016533929854631424,
        0.01552996039390564
      ],
      "type": "VEC2"
    },
    {
      "bufferView": 1,
      "byteOffset": 33264,
      "componentType": 5126,
      "count": 594,
      "max": [
        0.96276843547821045,
        0.96393477916717529
      ],
      "min": [
        0.016533929854631424,
        0.01552996039390564
      ],
      "type": "VEC2"
    },
    {
      "bufferView": 1,
      "byteOffset": 38016,
      "componentType": 5126,
      "count": 594,
      "max": [
        0.96276843547821045,
        0.96393477916717529
      ],
      "min": [
        0.016533929854631424,
        0.01552996039390564
      ],
      "type": "VEC2"
    },
    {
      "bufferView": 0,
      "byteOffset": 17904,
      "componentType": 5125,
      "count": 2238,
      "max": [
        593
      ],
      "min": [
        0
      ],
      "type": "SCALAR"
    },
    {
      "bufferView": 2,
      "byteOffset": 42768,
      "componentType": 5126,
      "count": 594,
      "max": [
        0.6101803183555603,
        0.57161569595336914,
        2.0232434272766113
      ],
      "min": [
        -0.61018025875091553,
        -0.59045881032943726,
        -0.0031888484954833984
      ],
      "type": "VEC3"
    },
    {
      "bufferView": 2,
      "byteOffset": 49896,
      "componentType": 5126,
      "count": 594,
      "max": [
        1,
        1,
        1
      ],
      "min": [
        -1,
        -1,
        -1
      ],
      "type": "VEC3"
    },
    {
      "bufferView": 3,
      "byteOffset": 28512,
      "componentType": 5126,
      "count": 594,
      "max": [
        1,
        1,
        1,
        1
      ],
      "min": [
        -1,
        -1,
        -1,
        -1
      ],
      "type": "VEC4"
    },
    {
      "bufferView": 1,
      "byteOffset": 42768,
      "componentType": 5126,
      "count": 594,
      "max": [
        0.96276843547821045,
        0.96393477916717529
      ],
      "min": [
        0.016533929854631424,
        0.01552996039390564
      ],
      "type": "VEC2"
    },
    {
      "bufferView": 1,
      "byteOffset": 47520,
      "componentType": 5126,
      "count": 594,
      "max": [
        0.96276843547821045,
        0.96393477916717529
      ],
      "min": [
        0.016533929854631424,
        0.01552996039390564
      ],
      "type": "VEC2"
    },
    {
      "bufferView": 1,
      "byteOffset": 52272,
      "componentType": 5126,
      "count": 594,
      "max": [
        0.96276843547821045,
        0.96393477916717529
      ],
      "min": [
        0.016533929854631424,
        0.01552996039390564
      ],
      "type": "VEC2"
    },
    {
      "bufferView": 0,
      "byteOffset": 26856,
      "componentType": 5125,
      "count": 2238,
      "max": [
        593
      ],
      "min": [
        0
      ],
      "type": "SCALAR"
    },
    {
      "bufferView": 2,
      "byteOffset": 57024,
      "componentType": 5126,
      "count": 832,
      "max": [
        2.2499265670776367,
        1.3546185493469238,
        1.6934525966644287
      ],
      "min": [
        -2.2745330333709717,
        -1.3622242212295532,
        0.0068402290344238281
      ],
      "type": "VEC3"
    },
    {
      "bufferView": 2,
      "byteOffset": 67008,
      "componentType": 5126,
      "count": 832,
      "max": [
        1,
        1,
        1
      ],
      "min": [
        -1,
        -1,
        -1
      ],
      "type": "VEC3"
    },
    {
      "bufferView": 3,
      "byteOffset": 38016,
      "componentType": 5126,
      "count": 832,
      "max": [
        1,
        1,
        1,
        1
      ],
      "min": [
        -1,
        -1,
        -1,
        -1
      ],
      "type": "VEC4"
    },
    {
      "bufferView": 1,
      "byteOffset": 57024,
      "componentType": 5126,
      "count": 832,
      "max": [
        0.99210864305496216,
        0.99484783411026001
      ],
      "min": [
        0.00045816166675649583,
        0.00045816166675649583
      ],
      "type": "VEC2"
    },
    {
      "bufferView": 1,
      "byteOffset": 63680,
      "componentType": 5126,
      "count": 832,
      "max": [
        0.99210864305496216,
        0.99484783411026001
      ],
      "min": [
        0.00045816166675649583,
        0.00045816166675649583
      ],
      "type": "VEC2"
    },
    {
      "bufferView": 1,
      "byteOffset": 70336,
      "componentType": 5126,
      "count": 832,
      "max": [
        0.99210864305496216,
        0.99484783411026001
      ],
      "min": [
        0.00045816166675649583,
        0.00045816166675649583
      ],
      "type": "VEC2"
    },
    {
      "bufferView": 0,
      "byteOffset": 35808,
      "componentType": 5125,
      "count": 2196,
      "max": [
        831
      ],
      "min": [
        0
      ],
      "type": "SCALAR"
    }
  ],
  "asset": {
    "extras": {
      "author": "mandragorasprout (https://sketchfab.com/mandragorasprout)",
      "license": "CC-BY-4.0 (http://creativecommons.org/licenses/by/4.0/)",
      "source": "https://sketchfab.com/3d-models/common-table-and-chair-5929c9af641f45a687f028f7a0d90039",
      "title": "Common Table And Chair"
    },
    "generator": "Sketchfab-9.37.0",
    "version": "2.0"
  },
  "bufferViews": [
    {
      "buffer": 0,
      "byteLength": 44592,
      "byteOffset": 0,
      "name": "floatBufferViews",
      "target": 34963
    },
    {
      "buffer": 0,
      "byteLength": 76992,
      "byteOffset": 44592,
      "byteStride": 8,
      "name": "floatBufferViews",
      "target": 34962
    },
    {
      "buffer": 0,
      "byteLength": 76992,
      "byteOffset": 121584,
      "byteStride": 12,
      "name": "floatBufferViews",
      "target": 34962
    },
    {
      "buffer": 0,
      "byteLength": 51328,
      "byteOffset": 198576,
      "byteStride": 16,
      "name": "floatBufferViews",
      "target": 34962
    }
  ],
  "buffers": [
    {
      "byteLength": 249904,
      "uri": "scene.bin"
    }
  ],
  "images": [
    {
      "uri": "textures/chair_baseColor.png"
    },
    {
      "uri": "textures/chair_metallicRoughness.png"
    },
    {
      "uri": "textures/chair_normal.png"
    },
    {
      "uri": "textures/tableWooden_baseColor.png"
    },
    {
      "uri": "textures/tableWooden_metallicRoughness.png"
    },
    {
      "uri": "textures/tableWooden_normal.png"
    }
  ],
  "materials": [
    {
      "doubleSided": true,
      "emissiveFactor": [
        0,
        0,
        0
      ],
      "name": "chair",
      "normalTexture": {
        "index": 2,
        "scale": 1,
        "texCoord": 0
      },
      "pbrMetallicRoughness": {
        "baseColorFactor": [
          1,
          1,
          1,
          1
        ],
        "baseColorTexture": {
          "index": 0,
          "texCoord": 0
        },
        "metallicFactor": 1,
        "metallicRoughnessTexture": {
          "index": 1,
          "texCoord": 0
        },
        "roughnessFactor": 1
      }
    },
    {
      "doubleSided": true,
      "emissiveFactor": [
        0,
        0,
        0
      ],
      "name": "tableWooden",
      "normalTexture": {
        "index": 5,
        "scale": 1,
        "texCoord": 0
      },
      "pbrMetallicRoughness": {
        "baseColorFactor": [
          1,
          1,
          1,
          1
        ],
        "baseColorTexture": {
          "index": 3,
          "texCoord": 0
        },
        "metallicFactor": 1,
        "metallicRoughnessTexture": {
          "index": 4,
          "texCoord": 0
        },
        "roughnessFactor": 1
      }
    }
  ],
  "meshes": [
    {
      "name": "chair_chair_0",
      "primitives": [
        {
          "attributes": {
            "NORMAL": 1,
            "POSITION": 0,
            "TANGENT": 2,
            "TEXCOORD_0": 3,
            "TEXCOORD_1": 4,
            "TEXCOORD_2": 5
          },
          "indices": 6,
          "material": 0,
          "mode": 4
        }
      ]
    },
    {
      "name": "chair.001_chair_0",
      "primitives": [
        {
          "attributes": {
            "NORMAL": 8,
            "POSITION": 7,
            "TANGENT": 9,
            "TEXCOORD_0": 10,
            "TEXCOORD_1": 11,
            "TEXCOORD_2": 12
          },
          "indices": 13,
          "material": 0,
          "mode": 4
        }
      ]
    },
    {
      "name": "chair.002_chair_0",
      "primitives": [
        {
          "attributes": {
            "NORMAL": 15,
            "POSITION": 14,
            "TANGENT": 16,
            "TEXCOORD_0": 17,
            "TEXCOORD_1": 18,
            "TEXCOORD_2": 19
          },
          "indices": 20,
          "material": 0,
          "mode": 4
        }
      ]
    },
    {
      "name": "chair.003_chair_0",
      "primitives": [
        {
          "attributes": {
            "NORMAL": 22,
            "POSITION": 21,
            "TANGENT": 23,
            "TEXCOORD_0": 24,
            "TEXCOORD_1": 25,
            "TEXCOORD_2": 26
          },
          "indices": 27,
          "material": 0,
          "mode": 4
        }
      ]
    },
    {
      "name": "table01.001_tableWooden_0",
      "primitives": [
        {
          "attributes": {
            "NORMAL": 29,
            "POSITION": 28,
            "TANGENT": 30,
            "TEXCOORD_0": 31,
            "TEXCOORD_1": 32,
            "TEXCOORD_2": 33
          },
          "indices": 34,
          "material": 1,
          "mode": 4
        }
      ]
    }
  ],
  "nodes": [
    {
      "children": [
        1
      ],
      "name": "RootNode (gltf orientation matrix)",
      "rotation": [
        -0.70710678118654746,
        -0,
        -0,
        0.70710678118654757
      ]
    },
    {
      "children": [
        2
      ],
      "matrix": [
        1,
        0,
        0,
        0,
        0,
        1,
        0,
        0,
        0,
        0,
        1,
        0,
        0,
        0.14048412442207336,
        1.1230163465825171e-07,
        1
      ],
      "name": "RootNode (model correction matrix)"
    },
    {
      "children": [
        3
      ],
      "matrix": [
        1,
        0,
        0,
        0,
        0,
        0,
        1,
        0,
        0,
        -1,
        0,
        0,
        0,
        0,
        0,
        1
      ],
      "name": "common_table_and _chair.fbx"
    },
    {
      "children": [
        4,
        6,
        8,
        10,
        12
      ],
      "name": "RootNode"
    },
    {
      "children": [
        5
      ],
      "matrix": [
        99.94415263411625,
        0,
        3.3416095296238417,
        0,
        3.3416095296238382,
        -4.3711389841050163e-06,
        -99.944152634116151,
        0,
        1.4606639682501754e-07,
        99.999999999999915,
        -4.3686978257184705e-06,
        0,
        -87.424240112304688,
        0,
        147.56082153320312,
        1
      ],
      "name": "chair"
    },
    {
      "mesh": 0,
      "name": "chair_chair_0"
    },
    {
      "children": [
        7
      ],
      "matrix": [
        -99.983237258621756,
        -1.2490009027033011e-14,
        1.830919792387415,
        0,
        1.8309197923874136,
        -4.3711390063094768e-06,
        99.983237258621642,
        0,
        8.0032036726962463e-08,
        99.999999999999915,
        4.3704062702154545e-06,
        0,
        -122.71353149414062,
        0,
        -158.80801391601562,
        1
      ],
      "name": "chair.001"
    },
    {
      "mesh": 1,
      "name": "chair.001_chair_0"
    },
    {
      "children": [
        9
      ],
      "matrix": [
        -90.842757246920485,
        1.1102231093284513e-14,
        41.804245976408204,
        0,
        41.80424597640809,
        7.5497905469763718e-06,
        90.842757246920215,
        0,
        -3.1561325192219769e-06,
        99.999999999999716,
        -6.8584368628776815e-06,
        0,
        65.652862548828125,
        0,
        -158.80801391601562,
        1
      ],
      "name": "chair.002"
    },
    {
      "mesh": 2,
      "name": "chair.002_chair_0"
    },
    {
      "children": [
        11
      ],
      "matrix": [
        80.738328670248379,
        5.5511151231257827e-15,
        59.002731153184328,
        0,
        59.002731153184264,
        -4.3711390063094768e-06,
        -80.738328670248308,
        0,
        2.5790914015555444e-06,
        99.999999999999915,
        -3.529184589012857e-06,
        0,
        86.909637451171875,
        0,
        252.75784301757812,
        1
      ],
      "name": "chair.003"
    },
    {
      "mesh": 3,
      "name": "chair.003_chair_0"
    },
    {
      "children": [
        13
      ],
      "matrix": [
        100,
        0,
        0,
        0,
        0,
        -1.6292067939183141e-05,
        -99.999999999998678,
        0,
        0,
        99.999999999998678,
        -1.6292067939183141e-05,
        0,
        0,
        0,
        0,
        1
      ],
      "name": "table01.001"
    },
    {
      "mesh": 4,
      "name": "table01.001_tableWooden_0"
    }
  ],
  "samplers": [
    {
      "magFilter": 9729,
      "minFilter": 9987,
      "wrapS": 10497,
      "wrapT": 10497
    }
  ],
  "scene": 0,
  "scenes": [
    {
      "name": "OSG_Scene",
      "nodes": [
        0
      ]
    }
  ],
  "textures": [
    {
      "sampler": 0,
      "source": 0
    },
    {
      "sampler": 0,
      "source": 1
    },
    {
      "sampler": 0,
      "source": 2
    },
    {
      "sampler": 0,
      "source": 3
    },
    {
      "sampler": 0,
      "source": 4
    },
    {
      "sampler": 0,
      "source": 5
    }
  ]
}

