{
  "accessors": [
    {
      "bufferView": 2,
      "componentType": 5126,
      "count": 9084,
      "max": [
        0.15654259920120239,
        0.22781461477279663,
        0.3842657208442688
      ],
      "min": [
        -0.24606519937515259,
        -0.21666568517684937,
        -0.38222849369049072
      ],
      "type": "VEC3"
    },
    {
      "bufferView": 2,
      "byteOffset": 109008,
      "componentType": 5126,
      "count": 9084,
      "max": [
        1,
        1,
        1
      ],
      "min": [
        -1,
        -1,
        -1
      ],
      "type": "VEC3"
    },
    {
      "bufferView": 1,
      "componentType": 5126,
      "count": 9084,
      "max": [
        0.98752909898757935,
        0.91780072450637817
      ],
      "min": [
        0.055271338671445847,
        0.0022321343421936035
      ],
      "type": "VEC2"
    },
    {
      "bufferView": 1,
      "byteOffset": 72672,
      "componentType": 5126,
      "count": 9084,
      "max": [
        1,
        1
      ],
      "min": [
        0.00027766398852691054,
        0.018816292285919189
      ],
      "type": "VEC2"
    },
    {
      "bufferView": 1,
      "byteOffset": 145344,
      "componentType": 5126,
      "count": 9084,
      "max": [
        0.98752909898757935,
        0.91780072450637817
      ],
      "min": [
        0.055271338671445847,
        0.0022321343421936035
      ],
      "type": "VEC2"
    },
    {
      "bufferView": 1,
      "byteOffset": 218016,
      "componentType": 5126,
      "count": 9084,
      "max": [
        0.98752909898757935,
        0.91780072450637817
      ],
      "min": [
        0.055271338671445847,
        0.0022321343421936035
      ],
      "type": "VEC2"
    },
    {
      "bufferView": 0,
      "componentType": 5125,
      "count": 29340,
      "max": [
        9083
      ],
      "min": [
        0
      ],
      "type": "SCALAR"
    },
    {
      "bufferView": 2,
      "byteOffset": 218016,
      "componentType": 5126,
      "count": 5807,
      "max": [
        0.17688725888729095,
        0.21945273876190186,
        0.14972877502441406
      ],
      "min": [
        -0.17406861484050751,
        -0.11737316846847534,
        -0.17591696977615356
      ],
      "type": "VEC3"
    },
    {
      "bufferView": 2,
      "byteOffset": 287700,
      "componentType": 5126,
      "count": 5807,
      "max": [
        0.99835973978042603,
        1,
        0.99824398756027222
      ],
      "min": [
        -0.99836152791976929,
        -1,
        -0.99824398756027222
      ],
      "type": "VEC3"
    },
    {
      "bufferView": 1,
      "byteOffset": 290688,
      "componentType": 5126,
      "count": 5807,
      "max": [
        0.99910628795623779,
        0.99910622835159302
      ],
      "min": [
        0.00089376745745539665,
        0.070733726024627686
      ],
      "type": "VEC2"
    },
    {
      "bufferView": 1,
      "byteOffset": 337144,
      "componentType": 5126,
      "count": 5807,
      "max": [
        0.99400997161865234,
        0.85915076732635498
      ],
      "min": [
        0.011594437994062901,
        0.018222570419311523
      ],
      "type": "VEC2"
    },
    {
      "bufferView": 1,
      "byteOffset": 383600,
      "componentType": 5126,
      "count": 5807,
      "max": [
        0.99910628795623779,
        0.99910622835159302
      ],
      "min": [
        0.00089376745745539665,
        0.070733726024627686
      ],
      "type": "VEC2"
    },
    {
      "bufferView": 1,
      "byteOffset": 430056,
      "componentType": 5126,
      "count": 5807,
      "max": [
        0.99910628795623779,
        0.99910622835159302
      ],
      "min": [
        0.00089376745745539665,
        0.070733726024627686
      ],
      "type": "VEC2"
    },
    {
      "bufferView": 0,
      "byteOffset": 117360,
      "componentType": 5125,
      "count": 18282,
      "max": [
        5806
      ],
      "min": [
        0
      ],
      "type": "SCALAR"
    },
    {
      "bufferView": 2,
      "byteOffset": 357384,
      "componentType": 5126,
      "count": 9630,
      "max": [
        0.95319998264312744,
        -0.27787351608276367,
        0.24381473660469055
      ],
      "min": [
        0.12599587440490723,
        -1.0054538249969482,
        -0.77455878257751465
      ],
      "type": "VEC3"
    },
    {
      "bufferView": 2,
      "byteOffset": 472944,
      "componentType": 5126,
      "count": 9630,
      "max": [
        0.99921774864196777,
        1,
        0.99921894073486328
      ],
      "min": [
        -0.99857276678085327,
        -1,
        -0.9942622184753418
      ],
      "type": "VEC3"
    },
    {
      "bufferView": 1,
      "byteOffset": 476512,
      "componentType": 5126,
      "count": 9630,
      "max": [
        0.9948151707649231,
        0.99910622835159302
      ],
      "min": [
        0.00089376745745539665,
        0.0043318867683410645
      ],
      "type": "VEC2"
    },
    {
      "bufferView": 1,
      "byteOffset": 553552,
      "componentType": 5126,
      "count": 9630,
      "max": [
        0.99794536828994751,
        0.99874073266983032
      ],
      "min": [
        0,
        0.016246438026428223
      ],
      "type": "VEC2"
    },
    {
      "bufferView": 1,
      "byteOffset": 630592,
      "componentType": 5126,
      "count": 9630,
      "max": [
        0.9948151707649231,
        0.99910622835159302
      ],
      "min": [
        0.00089376745745539665,
        0.0043318867683410645
      ],
      "type": "VEC2"
    },
    {
      "bufferView": 1,
      "byteOffset": 707632,
      "componentType": 5126,
      "count": 9630,
      "max": [
        0.9948151707649231,
        0.99910622835159302
      ],
      "min": [
        0.00089376745745539665,
        0.0043318867683410645
      ],
      "type": "VEC2"
    },
    {
      "bufferView": 0,
      "byteOffset": 190488,
      "componentType": 5125,
      "count": 30564,
      "max": [
        9629
      ],
      "min": [
        0
      ],
      "type": "SCALAR"
    },
    {
      "bufferView": 2,
      "byteOffset": 588504,
      "componentType": 5126,
      "count": 6655,
      "max": [
        0.16473378241062164,
        0.49405774474143982,
        0.1549384593963623
      ],
      "min": [
        -0.1949121356010437,
        -0.20812058448791504,
        -0.19887024164199829
      ],
      "type": "VEC3"
    },
    {
      "bufferView": 2,
      "byteOffset": 668364,
      "componentType": 5126,
      "count": 6655,
      "max": [
        0.9999924898147583,
        1,
        0.99924969673156738
      ],
      "min": [
        -0.99988031387329102,
        -1,
        -0.99760282039642334
      ],
      "type": "VEC3"
    },
    {
      "bufferView": 1,
      "byteOffset": 784672,
      "componentType": 5126,
      "count": 6655,
      "max": [
        0.9945339560508728,
        0.99910622835159302
      ],
      "min": [
        0.00089376745745539665,
        0.0087611675262451172
      ],
      "type": "VEC2"
    },
    {
      "bufferView": 1,
      "byteOffset": 837912,
      "componentType": 5126,
      "count": 6655,
      "max": [
        0.99888807535171509,
        0.85844093561172485
      ],
      "min": [
        0.010053971782326698,
        0.017010092735290527
      ],
      "type": "VEC2"
    },
    {
      "bufferView": 1,
      "byteOffset": 891152,
      "componentType": 5126,
      "count": 6655,
      "max": [
        0.9945339560508728,
        0.99910622835159302
      ],
      "min": [
        0.00089376745745539665,
        0.0087611675262451172
      ],
      "type": "VEC2"
    },
    {
      "bufferView": 1,
      "byteOffset": 944392,
      "componentType": 5126,
      "count": 6655,
      "max": [
        0.9945339560508728,
        0.99910622835159302
      ],
      "min": [
        0.00089376745745539665,
        0.0087611675262451172
      ],
      "type": "VEC2"
    },
    {
      "bufferView": 0,
      "byteOffset": 312744,
      "componentType": 5125,
      "count": 22500,
      "max": [
        6654
      ],
      "min": [
        0
      ],
      "type": "SCALAR"
    },
    {
      "bufferView": 2,
      "byteOffset": 748224,
      "componentType": 5126,
      "count": 1541,
      "max": [
        0.067944325506687164,
        0.091578572988510132,
        0.068226158618927002
      ],
      "min": [
        -0.067927278578281403,
        -0.16589230298995972,
        -0.06831812858581543
      ],
      "type": "VEC3"
    },
    {
      "bufferView": 2,
      "byteOffset": 766716,
      "componentType": 5126,
      "count": 1541,
      "max": [
        0.99528175592422485,
        0.99051213264465332,
        0.99887508153915405
      ],
      "min": [
        -0.9974820613861084,
        -1,
        -0.99794661998748779
      ],
      "type": "VEC3"
    },
    {
      "bufferView": 1,
      "byteOffset": 997632,
      "componentType": 5126,
      "count": 1541,
      "max": [
        0.99754977226257324,
        0.99910622835159302
      ],
      "min": [
        0.5034102201461792,
        0.23977530002593994
      ],
      "type": "VEC2"
    },
    {
      "bufferView": 1,
      "byteOffset": 1009960,
      "componentType": 5126,
      "count": 1541,
      "max": [
        0.99456298351287842,
        0.8584587574005127
      ],
      "min": [
        0.0090796388685703278,
        0.019090354442596436
      ],
      "type": "VEC2"
    },
    {
      "bufferView": 1,
      "byteOffset": 1022288,
      "componentType": 5126,
      "count": 1541,
      "max": [
        0.99754977226257324,
        0.99910622835159302
      ],
      "min": [
        0.5034102201461792,
        0.23977530002593994
      ],
      "type": "VEC2"
    },
    {
      "bufferView": 1,
      "byteOffset": 1034616,
      "componentType": 5126,
      "count": 1541,
      "max": [
        0.99754977226257324,
        0.99910622835159302
      ],
      "min": [
        0.5034102201461792,
        0.23977530002593994
      ],
      "type": "VEC2"
    },
    {
      "bufferView": 0,
      "byteOffset": 402744,
      "componentType": 5125,
      "count": 4776,
      "max": [
        1540
      ],
      "min": [
        0
      ],
      "type": "SCALAR"
    }
  ],
  "asset": {
    "extras": {
      "author": "sadcats (https://sketchfab.com/sadcats)",
      "license": "CC-BY-4.0 (http://creativecommons.org/licenses/by/4.0/)",
      "source": "https://sketchfab.com/3d-models/antique-room-furniture-9ca7b32010ed4755ba342323072f62f4",
      "title": "Antique room furniture"
    },
    "generator": "Sketchfab-8.31.0",
    "version": "2.0"
  },
  "bufferViews": [
    {
      "buffer": 0,
      "byteLength": 421848,
      "byteOffset": 0,
      "name": "floatBufferViews",
      "target": 34963
    },
    {
      "buffer": 0,
      "byteLength": 1046944,
      "byteOffset": 421848,
      "byteStride": 8,
      "name": "floatBufferViews",
      "target": 34962
    },
    {
      "buffer": 0,
      "byteLength": 785208,
      "byteOffset": 1468792,
      "byteStride": 12,
      "name": "floatBufferViews",
      "target": 34962
    }
  ],
  "buffers": [
    {
      "byteLength": 2254000,
      "uri": "scene.bin"
    }
  ],
  "images": [
    {
      "uri": "textures/atlas_mobilier_baseColor.png"
    },
    {
      "uri": "textures/atlas_mobilier_metallicRoughness.png"
    }
  ],
  "materials": [
    {
      "doubleSided": true,
      "emissiveFactor": [
        0,
        0,
        0
      ],
      "name": "atlas_mobilier",
      "pbrMetallicRoughness": {
        "baseColorFactor": [
          1,
          1,
          1,
          1
        ],
        "baseColorTexture": {
          "index": 0,
          "texCoord": 0
        },
        "metallicFactor": 1,
        "metallicRoughnessTexture": {
          "index": 1,
          "texCoord": 0
        },
        "roughnessFactor": 1
      }
    }
  ],
  "meshes": [
    {
      "primitives": [
        {
          "attributes": {
            "NORMAL": 1,
            "POSITION": 0,
            "TEXCOORD_0": 2,
            "TEXCOORD_1": 3,
            "TEXCOORD_2": 4,
            "TEXCOORD_3": 5
          },
          "indices": 6,
          "material": 0,
          "mode": 4
        }
      ]
    },
    {
      "primitives": [
        {
          "attributes": {
            "NORMAL": 8,
            "POSITION": 7,
            "TEXCOORD_0": 9,
            "TEXCOORD_1": 10,
            "TEXCOORD_2": 11,
            "TEXCOORD_3": 12
          },
          "indices": 13,
          "material": 0,
          "mode": 4
        }
      ]
    },
    {
      "primitives": [
        {
          "attributes": {
            "NORMAL": 15,
            "POSITION": 14,
            "TEXCOORD_0": 16,
            "TEXCOORD_1": 17,
            "TEXCOORD_2": 18,
            "TEXCOORD_3": 19
          },
          "indices": 20,
          "material": 0,
          "mode": 4
        }
      ]
    },
    {
      "primitives": [
        {
          "attributes": {
            "NORMAL": 22,
            "POSITION": 21,
            "TEXCOORD_0": 23,
            "TEXCOORD_1": 24,
            "TEXCOORD_2": 25,
            "TEXCOORD_3": 26
          },
          "indices": 27,
          "material": 0,
          "mode": 4
        }
      ]
    },
    {
      "primitives": [
        {
          "attributes": {
            "NORMAL": 29,
            "POSITION": 28,
            "TEXCOORD_0": 30,
            "TEXCOORD_1": 31,
            "TEXCOORD_2": 32,
            "TEXCOORD_3": 33
          },
          "indices": 34,
          "material": 0,
          "mode": 4
        }
      ]
    }
  ],
  "nodes": [
    {
      "children": [
        1
      ],
      "name": "RootNode (gltf orientation matrix)",
      "rotation": [
        -0.70710678118654746,
        -0,
        -0,
        0.70710678118654757
      ]
    },
    {
      "children": [
        2
      ],
      "matrix": [
        0.40312078595161438,
        0,
        0,
        0,
        0,
        0.40312078595161438,
        0,
        0,
        0,
        0,
        0.40312078595161438,
        0,
        0,
        0,
        0,
        1
      ],
      "name": "RootNode (model correction matrix)"
    },
    {
      "children": [
        3
      ],
      "name": "root"
    },
    {
      "children": [
        4,
        6,
        8,
        10,
        12
      ],
      "matrix": [
        1,
        0,
        0,
        0,
        0,
        2.2204460492503131e-16,
        1,
        0,
        0,
        -1,
        2.2204460492503131e-16,
        0,
        0,
        0,
        0,
        1
      ],
      "name": "GLTF_SceneRootNode"
    },
    {
      "children": [
        5
      ],
      "matrix": [
        2.6247978210449219,
        0,
        0,
        0,
        0,
        2.5,
        0,
        0,
        0,
        0,
        2.6118683815002441,
        0,
        -1.8841121196746826,
        0.5381171703338623,
        0.65569818019866943,
        1
      ],
      "name": "bureau_0"
    },
    {
      "mesh": 0,
      "name": ""
    },
    {
      "children": [
        7
      ],
      "matrix": [
        2.6247978210449219,
        0,
        0,
        0,
        0,
        2.5,
        0,
        0,
        0,
        0,
        2.6118683815002441,
        0,
        0.18532739579677582,
        0.29441547393798828,
        -1.823816180229187,
        1
      ],
      "name": "table de chevet_1"
    },
    {
      "mesh": 1,
      "name": ""
    },
    {
      "children": [
        9
      ],
      "matrix": [
        2.6247978210449219,
        0,
        0,
        0,
        0,
        2.5,
        0,
        0,
        0,
        0,
        2.6118683815002441,
        0,
        0,
        2.5,
        0,
        1
      ],
      "name": "lit_2"
    },
    {
      "mesh": 2,
      "name": ""
    },
    {
      "children": [
        11
      ],
      "matrix": [
        2.6247978210449219,
        0,
        0,
        0,
        0,
        2.5,
        0,
        0,
        0,
        0,
        2.6118683815002441,
        0,
        -0.86924529075622559,
        0.51631271839141846,
        1.5056753158569336,
        1
      ],
      "name": "chaise_3"
    },
    {
      "mesh": 3,
      "name": ""
    },
    {
      "children": [
        13
      ],
      "matrix": [
        2.6247978210449219,
        0,
        0,
        0,
        0,
        2.5,
        0,
        0,
        0,
        0,
        2.6118683815002441,
        0,
        0.19065579771995544,
        1.2567596435546875,
        -1.9149638414382935,
        1
      ],
      "name": "lampe_4"
    },
    {
      "mesh": 4,
      "name": ""
    }
  ],
  "samplers": [
    {
      "magFilter": 9729,
      "minFilter": 9987,
      "wrapS": 10497,
      "wrapT": 10497
    }
  ],
  "scene": 0,
  "scenes": [
    {
      "name": "OSG_Scene",
      "nodes": [
        0
      ]
    }
  ],
  "textures": [
    {
      "sampler": 0,
      "source": 0
    },
    {
      "sampler": 0,
      "source": 1
    }
  ]
}

